PathFileType	4	(X/Y/Z)	path1_05_0-945.trc
DataRate	CameraRate	NumFrames	NumMarkers	Units	OrigDataRate	OrigDataStartFrame	OrigNumFrames
30	30	6	22	m	30	0	945
Frame#	Time	Hip			RHip			RKnee			RAnkle			RBigToe			RSmallToe			RHeel			LHip			LKnee			LAnkle			LBigToe			LSmallToe			LHeel			Neck			Head			Nose			RShoulder			RElbow			RWrist			LShoulder			LElbow			LWrist		
		X1	Y1	Z1	X2	Y2	Z2	X3	Y3	Z3	X4	Y4	Z4	X5	Y5	Z5	X6	Y6	Z6	X7	Y7	Z7	X8	Y8	Z8	X9	Y9	Z9	X10	Y10	Z10	X11	Y11	Z11	X12	Y12	Z12	X13	Y13	Z13	X14	Y14	Z14	X15	Y15	Z15	X16	Y16	Z16	X17	Y17	Z17	X18	Y18	Z18	X19	Y19	Z19	X20	Y20	Z20	X21	Y21	Z21	X22	Y22	Z22
1	0.03333333333333333	-1.6688017923217058	0.8129536261761691	0.2576074678835558	-1.6754392239204328	0.7997190402875141	0.34120959895254216	-1.6976496030795443	0.46257994772075456	0.3000348865307747	-1.724116150561849	0.11433443261680393	0.3047468728993807	-1.5478307893889987	0.03202271109448114	0.33882907271866297	-1.5830078649113688	0.03718091122688174	0.40055678144010437	-1.7632852886904486	0.05426480671704324	0.3127775797305987	-1.6519201310730098	0.7887894270677631	0.18851240506362904	-1.6883632998352387	0.4502819627378277	0.204232514150774	-1.7256343820524969	0.10266833106044158	0.1469430233462293	-1.5522397124882814	0.01802511090934054	0.13930981210099097	-1.5875842100922914	0.012404925362427491	0.08049875666170236	-1.7760005482079677	0.02469585976236482	0.16793311987389822	-1.6527808462434324	1.4479074207378295	0.20577222792972213	-1.5788823340978637	1.731708497492243	0.26406638542227306	-1.5182547463905174	1.5861268264650557	0.25476203180669116	-1.713734996968765	1.3570355857472542	0.3569526962975729	-1.7033115593654036	1.056788122810774	0.3932008030700015	-1.6341523663579287	0.854059928956739	0.4224064368387343	-1.669055923101295	1.343899089134031	0.03428835167435566	-1.6730646499810384	1.0357596202586332	0.10442662462534044	-1.580206775933451	0.8565741204090885	0.060051319549452586
2	0.06666666666666667	-1.6674711557346769	0.8157990091537786	0.2533654462167994	-1.6765818909804522	0.7964039846674587	0.3389118332285836	-1.7011212903418866	0.46589401175483114	0.298440593556341	-1.72096393810108	0.10136560852034877	0.3373404925938902	-1.561762355815456	0.03284172081075098	0.3333352860830617	-1.5943147671140843	0.03267362741720494	0.3888668172692086	-1.7577294598775577	0.05856715105171705	0.3081515441051201	-1.6545127244217759	0.7864122071687448	0.18822701764145003	-1.6859820261640472	0.44963815087622244	0.20983989006350598	-1.7012075736668077	0.1003006724054736	0.16915015405926667	-1.5624151275519447	0.009343735346668736	0.14020535853028382	-1.5885629179555256	0.011632755475119657	0.08448109302747706	-1.7800834504144702	0.018642026345510973	0.17112350195528875	-1.6499730245850552	1.4503834180407214	0.207974764016693	-1.5881657497724406	1.7189525446886007	0.25331776193865263	-1.515676405470346	1.5912054612787223	0.25247043875054465	-1.7185602921066325	1.3544672824151214	0.35174413224209866	-1.7008360904463105	1.0534753596749102	0.3904335687802031	-1.6118357127662313	0.8565678072282821	0.46126088298334456	-1.6714473356790513	1.3286722528729173	0.12460859063555609	-1.6706359896110872	1.035892782123761	0.10256465242001478	-1.5778829680986897	0.8547767145426315	0.058227149576814505
3	0.1	-1.6664190212117818	0.816268309507253	0.2524238791463443	-1.6693224774392632	0.8045281349267962	0.3374862351605713	-1.6968254373829574	0.4706396823176089	0.2987665586660039	-1.7199693433126315	0.12528281736919586	0.3097159150902804	-1.5654670929480408	0.03238581947351958	0.3310394428800651	-1.5946219715050203	0.03372950203909355	0.38966428542358006	-1.7550177456689293	0.06175617404400312	0.30802240562667427	-1.652772254089993	0.7983198973765817	0.18207456832072158	-1.656659468283074	0.44345178666095536	0.17421117274743056	-1.6982102086238606	0.10526878575925663	0.16821728469159739	-1.5555550467257198	0.011737238649432893	0.13575387403471048	-1.5593963120097234	0.023019547704979	0.1020103064196648	-1.7793920388239217	0.02150937750295419	0.17044694335033372	-1.6526250940184175	1.4466398389380755	0.2045923010258462	-1.5799826469881921	1.7246275993846512	0.2544548142058172	-1.5174998258303765	1.5860081320862545	0.23225723221393055	-1.7141646248149993	1.3526314735444536	0.35211958757157	-1.7014761815123636	1.0514973658332978	0.38946840972907193	-1.6106504606946568	0.858794494077184	0.46205952787330534	-1.6796039008250996	1.328857557905537	0.1271199988187161	-1.6758068989567763	1.0362214947238308	0.10301615986780914	-1.5745437393436792	0.8544617948970259	0.058190205206008316
4	0.13333333333333333	-1.667148966313608	0.818719880943053	0.2517698935997052	-1.676128754397289	0.8069124506486898	0.3364718115026367	-1.6987230053488431	0.4735493140576613	0.2958441258752101	-1.721200836671193	0.12656727529506687	0.30616568137880856	-1.5657855559558211	0.03431491960740784	0.3329865403660679	-1.5950066828099296	0.03393956017086991	0.38721626373850154	-1.7589755791082688	0.06028439298777258	0.3048296999798069	-1.6524300877996136	0.8003317979643374	0.18087478466978754	-1.6790581588379827	0.4556313949860289	0.20488927728878384	-1.6958200208454224	0.10869650557651661	0.1676451989180833	-1.5555458257012436	0.015252133050490713	0.133208638604556	-1.5532084398182737	0.026938958842036603	0.10231281380335705	-1.7809119858717548	0.019421782265202036	0.16995912393645585	-1.6543729458040428	1.4464044197632036	0.20374110848898666	-1.5770375344399667	1.7271368614436684	0.26394142101	-1.5193307521657895	1.5844312833001712	0.2444180166580143	-1.718136178821885	1.3547108637289758	0.3502410176111775	-1.7027717527821684	1.0520790301956928	0.38976378580506754	-1.6094296957585197	0.8586853244044406	0.46339677462102946	-1.6761087131853527	1.3288520693417103	0.12631020735479181	-1.6745897601335473	1.0360036024223878	0.10403420352318517	-1.5753053255019316	0.8537249436318747	0.0555273459730339
5	0.16666666666666666	-1.6664970623640791	0.8189427490976008	0.2525443621466575	-1.6727645048503346	0.8045439756818662	0.339110500262697	-1.6976215620644326	0.4728621009926365	0.29847831108123596	-1.7216153858597627	0.12420828983735822	0.30785139257375976	-1.5649647988377924	0.03389664381499459	0.33177116933807044	-1.595683391107603	0.03267955991397565	0.38747400367867924	-1.7578075972079248	0.059100397562248996	0.3075810342992098	-1.6530475899705348	0.7980411140255881	0.18467412413179032	-1.6817214148898896	0.4546383930023988	0.20845579493515315	-1.7007232448436007	0.10603156233758673	0.1668956928842342	-1.5576812676099747	0.011872045152284169	0.13506524198801947	-1.5830173330185666	0.017216480239728615	0.08120264542737367	-1.7811831414877866	0.020335686515502462	0.1691780320052707	-1.6533890595165246	1.44661944024562	0.20342695876544908	-1.5791251372237534	1.7253860291822325	0.2644984069196522	-1.517796727815535	1.5850894755034548	0.2426428374314159	-1.7169729561627234	1.3539985066883238	0.3506654561086352	-1.702322085939087	1.0507265833728583	0.38840045434767895	-1.610240028278363	0.8587483512870652	0.46320086084127166	-1.6766739449940116	1.3293022843774795	0.1265674836173441	-1.67332163903329	1.0363103944044934	0.10108233757735609	-1.5751312947820184	0.8529329827179772	0.056291943376593934
6	0.2	-1.668030035796588	0.8186928864356873	0.2506012288797816	-1.673308574319811	0.8070624707968478	0.3360849883485656	-1.696991780861975	0.473247007730568	0.29742149947859253	-1.721861106267041	0.12571643823092762	0.30774005633749474	-1.5660729640469562	0.033006106150563715	0.3290486139488745	-1.5953249000110512	0.03266162550913455	0.38475887592699376	-1.756646430378783	0.06262939210131478	0.3052021371609978	-1.65149221087603	0.8011243544963613	0.18115670163777395	-1.6794881726506392	0.4568102224600097	0.2025622187916543	-1.6955648374358423	0.10888918721483695	0.16652396991852186	-1.554577900883403	0.016110541637802334	0.13225593270795055	-1.5543032135311583	0.026474829795209785	0.10092966878153707	-1.7795656769001333	0.019629457102861902	0.17033908991231772	-1.6544482412873422	1.4454541457515526	0.20365593537175575	-1.5775110022337107	1.72734112641399	0.2622230967058318	-1.5185880089702912	1.5855327746008592	0.24640826164135238	-1.717724856293975	1.3540968020101263	0.3535046086712154	-1.7024423482675433	1.0512937465734344	0.38893347090989966	-1.6101093772069732	0.8579979104744347	0.46168735724138477	-1.6761877578449733	1.330096625548804	0.12573839413328664	-1.6730950964336502	1.03656435820745	0.10250599066304458	-1.5755584704104737	0.8538678394746113	0.05609188085523994
